<?xml version="1.0" standalone="no"?>
<!DOCTYPE svg PUBLIC "-//W3C//DTD SVG 20010904//EN"
 "http://www.w3.org/TR/2001/REC-SVG-20010904/DTD/svg10.dtd">
<svg version="1.0" xmlns="http://www.w3.org/2000/svg"
 width="185.000000pt" height="140.000000pt" viewBox="0 0 185.000000 140.000000"
 preserveAspectRatio="xMidYMid meet">

<g transform="translate(0.000000,140.000000) scale(0.100000,-0.100000)"
fill="#000000" stroke="none">
<path d="M470 1305 c0 -95 0 -95 25 -95 l25 0 0 -190 0 -190 -25 0 c-25 0 -25
0 -25 -95 l0 -95 115 0 c63 0 115 -3 115 -7 0 -5 -27 -46 -60 -93 -33 -47 -60
-88 -60 -92 0 -5 42 -8 93 -8 l92 0 70 101 c39 56 73 106 77 112 5 9 10 9 20
-1 8 -8 44 -12 105 -12 l93 0 0 -100 0 -101 118 3 117 3 3 88 3 87 -31 0 -30
0 0 200 0 200 30 0 30 0 0 85 0 85 -138 0 -138 0 -79 -115 c-44 -63 -83 -115
-87 -115 -4 0 -16 13 -27 29 l-20 28 128 184 c71 101 127 187 124 192 -2 4
-46 7 -97 7 l-92 0 -115 -165 -114 -164 -3 164 -2 165 -120 0 -120 0 0 -95z
m295 -412 c26 -37 49 -73 52 -80 4 -10 -92 -163 -103 -163 -2 0 -4 70 -4 155
0 85 2 155 4 155 3 0 26 -30 51 -67z m363 -155 l-3 -71 -47 69 c-27 38 -48 73
-48 77 0 5 21 39 48 77 l47 68 3 -75 c2 -40 2 -106 0 -145z"/>
<path d="M220 145 l0 -145 30 0 c30 0 30 0 30 59 0 92 17 91 56 -4 18 -44 24
-50 53 -53 37 -4 37 -6 -3 95 l-24 57 20 45 c41 96 41 91 5 91 -31 0 -35 -4
-56 -55 -13 -30 -29 -55 -37 -55 -10 0 -14 14 -14 55 0 54 0 55 -30 55 l-30 0
0 -145z"/>
<path d="M470 145 l0 -145 90 0 c89 0 90 0 90 25 0 24 -3 25 -60 25 l-60 0 0
40 0 40 50 0 c47 0 50 2 50 25 0 23 -3 25 -50 25 -49 0 -50 1 -50 30 0 28 1
29 58 32 50 3 57 6 60 26 3 21 1 22 -87 22 l-91 0 0 -145z"/>
<path d="M700 146 l0 -146 25 0 c25 0 25 0 26 103 l1 102 35 -102 35 -103 34
0 34 0 0 145 0 145 -25 0 c-25 0 -25 0 -26 -97 l-1 -98 -32 95 -33 95 -36 3
-37 3 0 -145z"/>
<path d="M950 265 c0 -23 3 -25 50 -25 28 0 50 -2 50 -4 0 -3 -22 -42 -50 -88
-33 -54 -50 -94 -50 -115 l0 -33 91 0 90 0 -3 27 c-3 26 -7 28 -56 33 l-52 5
50 85 c27 47 50 97 50 113 l0 27 -85 0 c-84 0 -85 0 -85 -25z"/>
<path d="M1190 265 c0 -21 5 -25 30 -25 l31 0 -3 -92 -3 -93 -27 -3 c-22 -3
-28 -9 -28 -28 0 -24 1 -24 90 -24 89 0 90 0 90 25 0 21 -5 25 -30 25 l-30 0
0 94 0 95 28 3 c19 2 28 9 30 26 3 21 1 22 -87 22 -90 0 -91 0 -91 -25z"/>
<path d="M1430 145 l0 -145 90 0 c89 0 90 0 90 25 0 24 -3 25 -60 25 l-60 0 0
40 0 40 56 0 c52 0 55 1 52 23 -3 19 -10 22 -55 25 -51 3 -53 4 -53 33 0 29 0
29 60 29 57 0 60 1 60 25 0 25 -1 25 -90 25 l-90 0 0 -145z"/>
</g>
</svg>
