<?xml version="1.0" standalone="no"?>
<!DOCTYPE svg PUBLIC "-//W3C//DTD SVG 20010904//EN"
 "http://www.w3.org/TR/2001/REC-SVG-20010904/DTD/svg10.dtd">
<svg version="1.0" xmlns="http://www.w3.org/2000/svg"
 width="348.000000pt" height="348.000000pt" viewBox="0 0 348.000000 348.000000"
 preserveAspectRatio="xMidYMid meet">

<g transform="translate(0.000000,348.000000) scale(0.100000,-0.100000)"
fill="#000000" stroke="none">
<path d="M1592 3140 c-527 -45 -995 -407 -1176 -910 -108 -299 -106 -641 4
-940 169 -459 582 -803 1062 -884 120 -21 344 -22 453 -2 305 54 552 183 762
397 261 266 393 591 393 963 1 160 -19 290 -62 421 -202 616 -794 1010 -1436
955z m338 -405 c353 -85 625 -337 733 -680 135 -429 -51 -910 -443 -1141 -353
-209 -777 -184 -1109 67 -188 141 -318 349 -372 594 -22 97 -17 314 8 415 99
396 399 679 800 755 95 18 288 13 383 -10z"/>
<path d="M1189 2410 c-93 -28 -145 -123 -119 -221 10 -38 39 -71 201 -235
l190 -191 -189 -184 c-127 -124 -192 -195 -200 -218 -49 -140 73 -275 216
-240 42 11 66 31 237 200 l190 188 190 -188 c160 -159 197 -191 233 -200 135
-37 259 91 222 229 -9 35 -41 70 -201 227 l-190 186 189 191 c170 172 190 196
201 239 35 143 -103 267 -237 212 -23 -10 -105 -84 -222 -200 l-185 -185 -180
181 c-212 214 -252 238 -346 209z"/>
</g>
</svg>
